<?xml version="1.0" encoding="UTF-8"?>
<svg id="Layer_2" data-name="Layer 2" xmlns="http://www.w3.org/2000/svg" viewBox="0 0 727.03 241.67">
  <defs>
    <style>
      .cls-1 {
        fill: #fff;
      }
    </style>
  </defs>
  <g id="Layer_1-2" data-name="Layer 1">
    <g>
      <g>
        <path class="cls-1" d="M165.6,241.67V104.38h24.69l.6,22.88-2.61-1.21c2.67-7.89,7.06-13.88,13.15-17.97,6.09-4.08,13.21-6.12,21.38-6.12,10.17,0,18.63,2.54,25.39,7.63,6.76,5.09,11.81,11.84,15.15,20.27,3.34,8.43,5.02,17.8,5.02,28.1s-1.71,19.67-5.12,28.1c-3.41,8.43-8.5,15.19-15.26,20.27-6.76,5.09-15.22,7.63-25.39,7.63-5.35,0-10.34-.94-14.95-2.81s-8.57-4.55-11.84-8.03c-3.28-3.48-5.59-7.56-6.93-12.24l2.41-2.01v52.79h-25.69Zm50.98-48.58c7.76,0,13.88-3.11,18.37-9.33,4.48-6.22,6.72-14.82,6.72-25.79s-2.24-19.57-6.72-25.79c-4.48-6.22-10.61-9.34-18.37-9.34-5.22,0-9.7,1.31-13.45,3.92-3.75,2.61-6.66,6.52-8.73,11.74-2.08,5.22-3.11,11.71-3.11,19.47s1,14.25,3.01,19.47,4.92,9.13,8.73,11.74c3.81,2.61,8.33,3.91,13.55,3.91Z"/>
        <path class="cls-1" d="M309.92,211.56c-7.76,0-13.99-2.01-18.67-6.02-4.68-4.01-7.02-10.44-7.02-19.27V69.05h25.69v114.61c0,2.68,.7,4.68,2.11,6.02,1.41,1.34,3.38,2.01,5.92,2.01h7.83v19.87h-15.86Z"/>
        <path class="cls-1" d="M372.55,213.97c-10.84,0-19.44-3.58-25.79-10.74-6.36-7.16-9.53-17.09-9.53-29.81V104.38h25.69v62.63c0,8.97,1.5,15.56,4.52,19.77s7.59,6.32,13.75,6.32c6.96,0,12.34-2.31,16.16-6.92,3.82-4.62,5.72-11.34,5.72-20.17v-61.62h25.69v107.19h-23.49l-.6-29.51,3.21,1c-1.6,10.17-5.42,17.86-11.44,23.08-6.02,5.22-13.99,7.83-23.89,7.83Z"/>
        <path class="cls-1" d="M452.04,211.56V104.38h23.28l.8,26.29-2.41-1.2c1.21-5.75,3.31-10.67,6.32-14.75,3.01-4.08,6.69-7.23,11.04-9.44,4.35-2.21,9.13-3.31,14.35-3.31,9.1,0,16.46,2.58,22.08,7.73,5.62,5.15,9.16,12.21,10.64,21.18h-3.41c1.2-6.29,3.28-11.54,6.22-15.76,2.94-4.21,6.65-7.46,11.14-9.73,4.48-2.27,9.53-3.41,15.15-3.41,7.36,0,13.71,1.57,19.07,4.72,5.35,3.15,9.47,7.73,12.34,13.75,2.88,6.02,4.31,13.45,4.31,22.28v68.85h-25.69v-62.22c0-8.83-1.51-15.46-4.52-19.87-3.01-4.42-7.6-6.63-13.75-6.63-4.15,0-7.7,1.07-10.64,3.21-2.95,2.14-5.19,5.25-6.72,9.33-1.54,4.08-2.31,9-2.31,14.75v61.42h-23.89v-61.42c0-8.83-1.34-15.59-4.01-20.27-2.68-4.68-7.29-7.03-13.85-7.03-4.15,0-7.66,1.07-10.54,3.21-2.88,2.14-5.15,5.25-6.83,9.33-1.67,4.08-2.51,9-2.51,14.75v61.42h-25.69Z"/>
        <path class="cls-1" d="M681.87,213.97c-7.5,0-14.02-1.6-19.57-4.82-5.55-3.21-9.87-7.69-12.94-13.45l-.6,15.86h-24.49V69.05h25.69v50.58c2.94-4.95,7.16-9.13,12.65-12.55,5.49-3.41,11.91-5.12,19.27-5.12,9.23,0,17.23,2.31,23.99,6.92,6.76,4.62,11.97,11.11,15.66,19.47,3.68,8.37,5.52,18.23,5.52,29.61s-1.84,21.25-5.52,29.61c-3.68,8.36-8.9,14.85-15.66,19.47-6.76,4.62-14.75,6.92-23.99,6.92Zm-5.82-20.88c7.36,0,13.25-3.11,17.66-9.33,4.42-6.22,6.62-14.82,6.62-25.79s-2.18-19.74-6.52-25.89c-4.35-6.16-10.21-9.24-17.56-9.24-5.49,0-10.21,1.37-14.15,4.12-3.95,2.74-6.96,6.72-9.03,11.94-2.08,5.22-3.11,11.58-3.11,19.07s1.04,13.48,3.11,18.77c2.07,5.29,5.05,9.33,8.93,12.14,3.88,2.81,8.56,4.21,14.05,4.21Z"/>
      </g>
      <path class="cls-1" d="M49.79,49.79V191.88L241.67,0H0V241.67H24.9V24.9H181.57l-106.88,106.88v-57.09h57.09v-24.9H49.79Z"/>
    </g>
  </g>
</svg>