<?xml version="1.0" encoding="UTF-8"?>
<svg id="Layer_2" data-name="Layer 2" xmlns="http://www.w3.org/2000/svg" viewBox="0 0 760.29 381.22">
  <defs>
    <style>
      .cls-1, .cls-2 {
        fill: #fff;
      }

      .cls-3, .cls-4 {
        fill: none;
        stroke: #fff;
        stroke-miterlimit: 10;
      }

      .cls-4, .cls-5, .cls-2 {
        opacity: .8;
      }

      .cls-2 {
        font-family: Poppins-Regular, Poppins;
        font-size: 24.75px;
      }
    </style>
  </defs>
  <g id="Layer_1-2" data-name="Layer 1">
    <g>
      <text class="cls-2" transform="translate(111.88 21.01)"><tspan x="0" y="0">x</tspan></text>
      <text class="cls-2" transform="translate(0 102.36)"><tspan x="0" y="0">x</tspan></text>
      <text class="cls-2" transform="translate(648.41 360.21) rotate(-180)"><tspan x="0" y="0">x</tspan></text>
      <text class="cls-2" transform="translate(760.29 278.87) rotate(-180)"><tspan x="0" y="0">x</tspan></text>
      <g>
        <path class="cls-1" d="M243.65,250.01v-94.48h16.99l.41,15.75-1.8-.83c1.84-5.43,4.86-9.55,9.05-12.36,4.19-2.81,9.09-4.21,14.71-4.21,7,0,12.82,1.75,17.47,5.25,4.65,3.5,8.13,8.15,10.43,13.95,2.3,5.8,3.45,12.25,3.45,19.34s-1.18,13.54-3.52,19.34c-2.35,5.8-5.85,10.45-10.5,13.95-4.65,3.5-10.48,5.25-17.47,5.25-3.68,0-7.11-.65-10.29-1.93s-5.89-3.13-8.15-5.53c-2.26-2.39-3.85-5.2-4.77-8.43l1.66-1.38v36.33h-17.68Zm35.08-33.43c5.34,0,9.55-2.14,12.64-6.42,3.08-4.28,4.63-10.2,4.63-17.75s-1.54-13.47-4.63-17.75c-3.09-4.28-7.3-6.42-12.64-6.42-3.59,0-6.68,.9-9.25,2.69-2.58,1.8-4.58,4.49-6.01,8.08-1.43,3.59-2.14,8.06-2.14,13.4s.69,9.81,2.07,13.4,3.38,6.28,6.01,8.08c2.62,1.8,5.73,2.69,9.32,2.69Z"/>
        <path class="cls-1" d="M342.96,229.29c-5.34,0-9.62-1.38-12.85-4.14-3.22-2.76-4.83-7.18-4.83-13.26v-80.67h17.68v78.87c0,1.84,.48,3.22,1.45,4.14,.97,.92,2.33,1.38,4.08,1.38h5.39v13.67h-10.91Z"/>
        <path class="cls-1" d="M386.06,230.94c-7.46,0-13.38-2.46-17.75-7.39-4.37-4.93-6.56-11.76-6.56-20.51v-47.52h17.68v43.1c0,6.17,1.04,10.71,3.11,13.61s5.23,4.35,9.46,4.35c4.79,0,8.49-1.59,11.12-4.77,2.63-3.18,3.94-7.8,3.94-13.88v-42.41h17.68v73.76h-16.16l-.41-20.3,2.21,.69c-1.1,7-3.73,12.29-7.87,15.89-4.14,3.59-9.62,5.39-16.44,5.39Z"/>
        <path class="cls-1" d="M440.76,229.29v-73.76h16.02l.55,18.09-1.66-.83c.83-3.96,2.28-7.34,4.35-10.15,2.07-2.81,4.6-4.97,7.6-6.49,2.99-1.52,6.28-2.28,9.88-2.28,6.26,0,11.33,1.77,15.2,5.32,3.87,3.55,6.31,8.4,7.32,14.57h-2.35c.83-4.33,2.25-7.94,4.28-10.84,2.03-2.9,4.58-5.13,7.67-6.7,3.08-1.56,6.56-2.35,10.43-2.35,5.06,0,9.44,1.08,13.12,3.25,3.68,2.17,6.51,5.32,8.49,9.46,1.98,4.14,2.97,9.26,2.97,15.33v47.38h-17.68v-42.82c0-6.08-1.04-10.64-3.11-13.67-2.07-3.04-5.23-4.56-9.46-4.56-2.85,0-5.3,.74-7.32,2.21-2.03,1.47-3.57,3.62-4.63,6.42-1.06,2.81-1.59,6.2-1.59,10.15v42.27h-16.44v-42.27c0-6.08-.92-10.73-2.76-13.95-1.84-3.22-5.02-4.84-9.53-4.84-2.85,0-5.27,.74-7.25,2.21-1.98,1.47-3.55,3.62-4.7,6.42-1.15,2.81-1.73,6.2-1.73,10.15v42.27h-17.68Z"/>
        <path class="cls-1" d="M598.92,230.94c-5.16,0-9.65-1.1-13.47-3.32-3.82-2.21-6.79-5.29-8.91-9.26l-.41,10.91h-16.85v-98.07h17.68v34.81c2.03-3.41,4.93-6.29,8.7-8.63,3.78-2.35,8.2-3.52,13.26-3.52,6.35,0,11.86,1.59,16.51,4.77,4.65,3.18,8.24,7.65,10.77,13.4,2.53,5.76,3.8,12.55,3.8,20.37s-1.27,14.62-3.8,20.38c-2.53,5.75-6.13,10.22-10.77,13.4-4.65,3.18-10.15,4.77-16.51,4.77Zm-4.01-14.37c5.06,0,9.12-2.14,12.16-6.42,3.04-4.28,4.56-10.2,4.56-17.75s-1.5-13.58-4.49-17.82c-2.99-4.24-7.02-6.36-12.09-6.36-3.78,0-7.02,.95-9.74,2.83-2.72,1.89-4.79,4.63-6.22,8.22-1.43,3.59-2.14,7.97-2.14,13.12s.71,9.28,2.14,12.92c1.43,3.64,3.48,6.42,6.15,8.36,2.67,1.93,5.89,2.9,9.67,2.9Z"/>
      </g>
      <path class="cls-1" d="M163.95,117.96v97.78L296,83.69H129.69V250.01h17.13V100.83h107.82l-73.55,73.55v-39.29h39.29v-17.13h-56.42Z"/>
      <line class="cls-4" x1="738.06" y1="131.21" x2="19.81" y2="131.21"/>
      <line class="cls-4" x1="738.06" y1="154.97" x2="19.81" y2="154.97"/>
      <g class="cls-5">
        <line class="cls-3" x1="738.06" y1="107.45" x2="19.81" y2="107.45"/>
        <line class="cls-3" x1="738.06" y1="83.69" x2="19.81" y2="83.69"/>
      </g>
      <line class="cls-4" x1="738.06" y1="178.73" x2="19.81" y2="178.73"/>
      <line class="cls-4" x1="738.06" y1="202.49" x2="19.81" y2="202.49"/>
      <line class="cls-4" x1="738.06" y1="226.25" x2="19.81" y2="226.25"/>
      <line class="cls-4" x1="738.06" y1="250.01" x2="19.81" y2="250.01"/>
      <line class="cls-4" x1="738.06" y1="273.76" x2="19.81" y2="273.76"/>
      <line class="cls-4" x1="738.06" y1="297.52" x2="19.81" y2="297.52"/>
      <line class="cls-4" x1="296" y1="353.6" x2="296" y2="27.62"/>
      <g class="cls-5">
        <line class="cls-3" x1="105.93" y1="353.61" x2="105.93" y2="27.62"/>
        <line class="cls-3" x1="129.69" y1="353.6" x2="129.69" y2="27.62"/>
      </g>
      <line class="cls-4" x1="653.76" y1="353.6" x2="653.76" y2="27.62"/>
      <line class="cls-4" x1="630" y1="353.6" x2="630" y2="27.62"/>
    </g>
  </g>
</svg>