<?xml version="1.0" encoding="UTF-8"?>
<svg id="Layer_2" data-name="Layer 2" xmlns="http://www.w3.org/2000/svg" viewBox="0 0 673.72 207.15">
  <defs>
    <style>
      .cls-1 {
        fill: #fff;
      }
    </style>
  </defs>
  <g id="Layer_1-2" data-name="Layer 1">
    <g>
      <path class="cls-1" d="M0,207.15V42.39H29.63l.72,27.46-3.13-1.45c3.21-9.47,8.47-16.66,15.77-21.56,7.31-4.9,15.86-7.34,25.65-7.34,12.2,0,22.36,3.05,30.47,9.15,8.11,6.1,14.17,14.21,18.19,24.33,4.01,10.11,6.02,21.36,6.02,33.72s-2.05,23.61-6.14,33.72c-4.1,10.12-10.2,18.23-18.31,24.33-8.11,6.1-18.27,9.15-30.47,9.15-6.42,0-12.41-1.13-17.94-3.37s-10.28-5.46-14.21-9.64c-3.94-4.17-6.71-9.07-8.31-14.69l2.89-2.41v63.35H0Zm61.18-58.29c9.31,0,16.66-3.73,22.04-11.2,5.38-7.47,8.07-17.78,8.07-30.95s-2.69-23.48-8.07-30.95c-5.38-7.47-12.73-11.2-22.04-11.2-6.26,0-11.64,1.57-16.14,4.7-4.5,3.13-7.99,7.83-10.48,14.09-2.49,6.26-3.73,14.05-3.73,23.36s1.21,17.1,3.61,23.37,5.9,10.96,10.48,14.09c4.58,3.13,9.99,4.7,16.26,4.7Z"/>
      <path class="cls-1" d="M173.18,171.02c-9.31,0-16.78-2.41-22.4-7.23-5.62-4.82-8.43-12.52-8.43-23.12V0h30.83V137.54c0,3.21,.84,5.62,2.53,7.23,1.69,1.61,4.05,2.41,7.11,2.41h9.39v23.85h-19.03Z"/>
      <path class="cls-1" d="M248.34,173.91c-13.01,0-23.33-4.29-30.95-12.89-7.63-8.59-11.44-20.51-11.44-35.77V42.39h30.83V117.55c0,10.76,1.81,18.67,5.42,23.73s9.11,7.59,16.5,7.59c8.35,0,14.81-2.77,19.39-8.31,4.58-5.54,6.87-13.61,6.87-24.21V42.39h30.83V171.02h-28.18l-.72-35.41,3.85,1.2c-1.93,12.21-6.5,21.44-13.73,27.7-7.23,6.26-16.78,9.39-28.67,9.39Z"/>
      <path class="cls-1" d="M343.72,171.02V42.39h27.94l.96,31.55-2.89-1.44c1.45-6.9,3.98-12.81,7.59-17.7,3.61-4.9,8.03-8.67,13.25-11.32,5.22-2.65,10.96-3.97,17.22-3.97,10.92,0,19.75,3.09,26.5,9.27,6.74,6.18,11,14.65,12.76,25.41h-4.09c1.44-7.54,3.93-13.85,7.47-18.91,3.53-5.06,7.99-8.95,13.37-11.68,5.38-2.73,11.44-4.09,18.19-4.09,8.83,0,16.46,1.89,22.88,5.66,6.42,3.78,11.36,9.27,14.81,16.5,3.45,7.23,5.18,16.14,5.18,26.74v82.62h-30.83V96.35c0-10.6-1.81-18.55-5.42-23.85-3.61-5.3-9.12-7.95-16.5-7.95-4.98,0-9.24,1.29-12.77,3.85-3.53,2.57-6.22,6.3-8.07,11.2-1.85,4.9-2.77,10.8-2.77,17.7v73.71h-28.67V97.31c0-10.6-1.61-18.7-4.82-24.33-3.21-5.62-8.75-8.43-16.62-8.43-4.98,0-9.19,1.29-12.64,3.85-3.45,2.57-6.18,6.3-8.19,11.2-2.01,4.9-3.01,10.8-3.01,17.7v73.71h-30.83Z"/>
      <path class="cls-1" d="M619.52,173.91c-9,0-16.82-1.93-23.49-5.78-6.66-3.85-11.84-9.23-15.53-16.14l-.72,19.03h-29.39V0h30.83V60.7c3.53-5.94,8.59-10.96,15.17-15.05,6.58-4.1,14.29-6.14,23.13-6.14,11.08,0,20.67,2.77,28.78,8.31,8.11,5.54,14.37,13.33,18.79,23.36,4.41,10.04,6.62,21.88,6.62,35.53s-2.21,25.5-6.62,35.53c-4.42,10.04-10.68,17.82-18.79,23.36-8.11,5.54-17.7,8.31-28.78,8.31Zm-6.99-25.05c8.83,0,15.9-3.73,21.2-11.2,5.3-7.47,7.95-17.78,7.95-30.95s-2.61-23.68-7.83-31.07c-5.22-7.39-12.25-11.08-21.08-11.08-6.59,0-12.25,1.65-16.98,4.94-4.74,3.29-8.35,8.07-10.84,14.33-2.49,6.26-3.73,13.89-3.73,22.88s1.24,16.18,3.73,22.52c2.49,6.35,6.06,11.2,10.72,14.57,4.65,3.37,10.27,5.06,16.86,5.06Z"/>
    </g>
  </g>
</svg>