<?xml version="1.0" encoding="UTF-8"?>
<svg id="Layer_2" data-name="Layer 2" xmlns="http://www.w3.org/2000/svg" viewBox="0 0 1011.9 317.68">
  <defs>
    <style>
      .cls-1, .cls-2 {
        fill: #fff;
      }

      .cls-3, .cls-2, .cls-4 {
        opacity: .8;
      }

      .cls-5, .cls-4 {
        fill: none;
        stroke: #fff;
        stroke-miterlimit: 10;
        stroke-width: .5px;
      }

      .cls-2 {
        font-family: Poppins-Regular, Poppins;
        font-size: 20.62px;
      }
    </style>
  </defs>
  <g id="Layer_1-2" data-name="Layer 1">
    <g>
      <rect class="cls-4" x="806.12" y="80.22" width="182.76" height="182.76" transform="translate(725.9 1069.09) rotate(-90)"/>
      <rect class="cls-4" x="859.96" y="134.06" width="75.08" height="75.08" transform="translate(725.9 1069.09) rotate(-90)"/>
      <line class="cls-4" x1="783.27" y1="107.72" x2="1011.72" y2="107.72"/>
      <line class="cls-4" x1="783.27" y1="120.73" x2="1011.72" y2="120.73"/>
      <line class="cls-4" x1="783.27" y1="133.74" x2="1011.72" y2="133.74"/>
      <line class="cls-4" x1="783.27" y1="146.75" x2="1011.72" y2="146.75"/>
      <line class="cls-4" x1="872.97" y1="57.46" x2="872.97" y2="285.9"/>
      <line class="cls-4" x1="859.96" y1="57.46" x2="859.96" y2="285.9"/>
      <line class="cls-4" x1="783.27" y1="235.64" x2="1011.72" y2="235.64"/>
      <line class="cls-4" x1="833.53" y1="285.9" x2="833.53" y2="57.46"/>
      <line class="cls-4" x1="961.46" y1="285.9" x2="961.46" y2="57.46"/>
      <line class="cls-4" x1="903.33" y1="285.9" x2="903.33" y2="57.46"/>
      <line class="cls-4" x1="1011.72" y1="57.37" x2="783.27" y2="285.82"/>
      <path class="cls-1" d="M859.96,134.06v75.16l101.5-101.5h-127.84v127.84h13.17V120.89h82.88l-56.54,56.54v-30.2h30.2v-13.17h-43.37Z"/>
      <g>
        <text class="cls-2" transform="translate(93.23 17.51)"><tspan x="0" y="0">x</tspan></text>
        <text class="cls-2" transform="translate(0 85.3)"><tspan x="0" y="0">x</tspan></text>
        <text class="cls-2" transform="translate(540.34 300.17) rotate(-180)"><tspan x="0" y="0">x</tspan></text>
        <text class="cls-2" transform="translate(633.57 232.39) rotate(-180)"><tspan x="0" y="0">x</tspan></text>
        <g>
          <path class="cls-1" d="M203.04,208.34v-78.73h14.16l.35,13.12-1.5-.69c1.53-4.53,4.05-7.96,7.54-10.3,3.49-2.34,7.58-3.51,12.26-3.51,5.83,0,10.68,1.46,14.56,4.37,3.87,2.92,6.77,6.79,8.69,11.63,1.92,4.83,2.88,10.21,2.88,16.11s-.98,11.28-2.94,16.12c-1.96,4.84-4.87,8.71-8.75,11.63-3.88,2.92-8.73,4.37-14.56,4.37-3.07,0-5.93-.54-8.58-1.61s-4.91-2.61-6.79-4.6c-1.88-1.99-3.21-4.33-3.97-7.02l1.38-1.15v30.27h-14.73Zm29.24-27.86c4.45,0,7.96-1.78,10.53-5.35,2.57-3.57,3.86-8.5,3.86-14.79s-1.29-11.22-3.86-14.79c-2.57-3.57-6.08-5.35-10.53-5.35-2.99,0-5.56,.75-7.71,2.25-2.15,1.5-3.82,3.74-5.01,6.73-1.19,2.99-1.78,6.72-1.78,11.17s.58,8.17,1.73,11.17,2.82,5.24,5.01,6.73c2.19,1.5,4.78,2.24,7.77,2.24Z"/>
          <path class="cls-1" d="M285.8,191.07c-4.45,0-8.02-1.15-10.71-3.45-2.69-2.3-4.03-5.98-4.03-11.05V109.34h14.73v65.73c0,1.54,.4,2.69,1.21,3.45,.81,.77,1.94,1.15,3.4,1.15h4.49v11.4h-9.09Z"/>
          <path class="cls-1" d="M321.72,192.45c-6.22,0-11.15-2.05-14.79-6.16-3.64-4.1-5.47-9.8-5.47-17.09v-39.6h14.73v35.91c0,5.14,.86,8.92,2.59,11.34s4.35,3.63,7.89,3.63c3.99,0,7.08-1.32,9.27-3.97,2.19-2.65,3.28-6.5,3.28-11.57v-35.34h14.73v61.47h-13.47l-.35-16.92,1.84,.57c-.92,5.83-3.11,10.24-6.56,13.24-3.45,2.99-8.02,4.49-13.7,4.49Z"/>
          <path class="cls-1" d="M367.3,191.07v-61.47h13.35l.46,15.08-1.38-.69c.69-3.3,1.9-6.12,3.63-8.46,1.73-2.34,3.84-4.15,6.33-5.41,2.49-1.27,5.24-1.9,8.23-1.9,5.22,0,9.44,1.48,12.66,4.43,3.22,2.96,5.26,7,6.1,12.14h-1.96c.69-3.61,1.88-6.62,3.57-9.04,1.69-2.42,3.82-4.28,6.39-5.58,2.57-1.3,5.47-1.96,8.69-1.96,4.22,0,7.86,.9,10.93,2.7,3.07,1.8,5.43,4.43,7.08,7.88,1.65,3.45,2.47,7.71,2.47,12.78v39.48h-14.73v-35.68c0-5.07-.86-8.86-2.59-11.4-1.73-2.53-4.36-3.8-7.89-3.8-2.38,0-4.41,.62-6.1,1.84-1.69,1.23-2.97,3.01-3.86,5.35-.88,2.34-1.32,5.16-1.32,8.46v35.22h-13.7v-35.22c0-5.06-.77-8.94-2.3-11.62-1.54-2.69-4.18-4.03-7.94-4.03-2.38,0-4.39,.62-6.04,1.84-1.65,1.23-2.96,3.01-3.91,5.35-.96,2.34-1.44,5.16-1.44,8.46v35.22h-14.73Z"/>
          <path class="cls-1" d="M499.1,192.45c-4.3,0-8.04-.92-11.22-2.76s-5.66-4.41-7.42-7.71l-.35,9.09h-14.04V109.34h14.73v29.01c1.69-2.84,4.1-5.24,7.25-7.19,3.15-1.96,6.83-2.94,11.05-2.94,5.29,0,9.88,1.32,13.76,3.97,3.87,2.65,6.87,6.37,8.98,11.17,2.11,4.8,3.17,10.46,3.17,16.98s-1.06,12.18-3.17,16.98c-2.11,4.8-5.1,8.52-8.98,11.17-3.88,2.65-8.46,3.97-13.76,3.97Zm-3.34-11.97c4.22,0,7.6-1.78,10.13-5.35,2.53-3.57,3.8-8.5,3.8-14.79s-1.25-11.32-3.74-14.85c-2.49-3.53-5.85-5.3-10.07-5.3-3.15,0-5.85,.79-8.11,2.36-2.27,1.57-3.99,3.86-5.18,6.85-1.19,2.99-1.78,6.64-1.78,10.93s.59,7.73,1.78,10.76c1.19,3.03,2.9,5.35,5.12,6.96,2.22,1.61,4.91,2.42,8.06,2.42Z"/>
        </g>
        <path class="cls-1" d="M136.63,98.3v81.48l110.04-110.04H108.07V208.34h14.28V84.02h89.85l-61.29,61.29v-32.74h32.74v-14.28h-47.02Z"/>
        <line class="cls-4" x1="615.05" y1="109.34" x2="16.51" y2="109.34"/>
        <line class="cls-4" x1="615.05" y1="129.14" x2="16.51" y2="129.14"/>
        <g class="cls-3">
          <line class="cls-5" x1="615.05" y1="89.55" x2="16.51" y2="89.55"/>
          <line class="cls-5" x1="615.05" y1="69.75" x2="16.51" y2="69.75"/>
        </g>
        <line class="cls-4" x1="615.05" y1="148.94" x2="16.51" y2="148.94"/>
        <line class="cls-4" x1="615.05" y1="168.74" x2="16.51" y2="168.74"/>
        <line class="cls-4" x1="615.05" y1="188.54" x2="16.51" y2="188.54"/>
        <line class="cls-4" x1="615.05" y1="208.34" x2="16.51" y2="208.34"/>
        <line class="cls-4" x1="615.05" y1="228.14" x2="16.51" y2="228.14"/>
        <line class="cls-4" x1="615.05" y1="247.94" x2="16.51" y2="247.94"/>
        <line class="cls-4" x1="246.67" y1="294.67" x2="246.67" y2="23.01"/>
        <g class="cls-3">
          <line class="cls-5" x1="88.28" y1="294.67" x2="88.28" y2="23.02"/>
          <line class="cls-5" x1="108.07" y1="294.67" x2="108.07" y2="23.01"/>
        </g>
        <line class="cls-4" x1="544.8" y1="294.67" x2="544.8" y2="23.01"/>
        <line class="cls-4" x1="525" y1="294.67" x2="525" y2="23.01"/>
      </g>
    </g>
  </g>
</svg>